{
  "accessors": [
    {
      "bufferView": 2,
      "componentType": 5126,
      "count": 2482,
      "max": [
        7.424596786499023,
        7.424598693847656,
        8.041460037231445
      ],
      "min": [
        -7.424596786499023,
        -7.424598693847656,
        -8.041460990905762
      ],
      "type": "VEC3"
    },
    {
      "bufferView": 2,
      "byteOffset": 29784,
      "componentType": 5126,
      "count": 2482,
      "max": [
        1.0,
        1.0,
        1.0
      ],
      "min": [
        -1.0,
        -1.0,
        -1.0
      ],
      "type": "VEC3"
    },
    {
      "bufferView": 3,
      "componentType": 5126,
      "count": 2482,
      "max": [
        1.0,
        1.0,
        1.0,
        1.0
      ],
      "min": [
        -0.9866257905960083,
        -1.0,
        -1.0,
        -1.0
      ],
      "type": "VEC4"
    },
    {
      "bufferView": 1,
      "componentType": 5126,
      "count": 2482,
      "max": [
        0.9767632484436035,
        0.9745262265205383
      ],
      "min": [
        0.014277264475822449,
        0.034710973501205444
      ],
      "type": "VEC2"
    },
    {
      "bufferView": 0,
      "componentType": 5125,
      "count": 12480,
      "type": "SCALAR"
    },
    {
      "bufferView": 2,
      "byteOffset": 59568,
      "componentType": 5126,
      "count": 2860,
      "max": [
        0.850847601890564,
        0.8952255249023438,
        0.2627582550048828
      ],
      "min": [
        -0.8605237603187561,
        -0.8145999908447266,
        -3.9213004112243652
      ],
      "type": "VEC3"
    },
    {
      "bufferView": 2,
      "byteOffset": 93888,
      "componentType": 5126,
      "count": 2860,
      "max": [
        0.9999907612800598,
        0.99994295835495,
        0.9994234442710876
      ],
      "min": [
        -0.999993085861206,
        -0.9990867376327515,
        -0.9990841150283813
      ],
      "type": "VEC3"
    },
    {
      "bufferView": 1,
      "byteOffset": 19856,
      "componentType": 5126,
      "count": 2860,
      "max": [
        0.9912642240524292,
        0.9721642136573792
      ],
      "min": [
        0.02212202548980713,
        0.013319607824087143
      ],
      "type": "VEC2"
    },
    {
      "bufferView": 0,
      "byteOffset": 49920,
      "componentType": 5125,
      "count": 8544,
      "type": "SCALAR"
    },
    {
      "bufferView": 2,
      "byteOffset": 128208,
      "componentType": 5126,
      "count": 2860,
      "max": [
        0.8460309505462646,
        0.8148288726806641,
        0.419589102268219
      ],
      "min": [
        -0.8653585910797119,
        -0.8930797576904297,
        -3.7728946208953857
      ],
      "type": "VEC3"
    },
    {
      "bufferView": 2,
      "byteOffset": 162528,
      "componentType": 5126,
      "count": 2860,
      "max": [
        0.9999950528144836,
        0.9979664087295532,
        0.9984934329986572
      ],
      "min": [
        -0.9999842047691345,
        -0.9995052814483643,
        -0.9979666471481323
      ],
      "type": "VEC3"
    },
    {
      "bufferView": 1,
      "byteOffset": 42736,
      "componentType": 5126,
      "count": 2860,
      "max": [
        0.9912642240524292,
        0.9721642136573792
      ],
      "min": [
        0.02212202548980713,
        0.013319607824087143
      ],
      "type": "VEC2"
    },
    {
      "bufferView": 0,
      "byteOffset": 84096,
      "componentType": 5125,
      "count": 8544,
      "type": "SCALAR"
    },
    {
      "bufferView": 2,
      "byteOffset": 196848,
      "componentType": 5126,
      "count": 2860,
      "max": [
        1.5085197687149048,
        10.439565658569336,
        1.5085198879241943
      ],
      "min": [
        -1.5085197687149048,
        5.5456953048706055,
        -1.5085198879241943
      ],
      "type": "VEC3"
    },
    {
      "bufferView": 2,
      "byteOffset": 231168,
      "componentType": 5126,
      "count": 2860,
      "max": [
        0.9999943971633911,
        1.0,
        1.0
      ],
      "min": [
        -0.999983549118042,
        -1.0,
        -1.0
      ],
      "type": "VEC3"
    },
    {
      "bufferView": 1,
      "byteOffset": 65616,
      "componentType": 5126,
      "count": 2860,
      "max": [
        0.9912642240524292,
        0.9721642136573792
      ],
      "min": [
        0.02212202548980713,
        0.013319607824087143
      ],
      "type": "VEC2"
    },
    {
      "bufferView": 0,
      "byteOffset": 118272,
      "componentType": 5125,
      "count": 8544,
      "type": "SCALAR"
    },
    {
      "bufferView": 2,
      "byteOffset": 265488,
      "componentType": 5126,
      "count": 522,
      "max": [
        18.583290100097656,
        4.1840500831604,
        1.0480070114135742
      ],
      "min": [
        7.152939796447754,
        -4.184049129486084,
        -1.0480072498321533
      ],
      "type": "VEC3"
    },
    {
      "bufferView": 2,
      "byteOffset": 271752,
      "componentType": 5126,
      "count": 522,
      "max": [
        0.9999318718910217,
        0.9999318718910217,
        1.0
      ],
      "min": [
        -0.9998723268508911,
        -0.999931812286377,
        -1.0
      ],
      "type": "VEC3"
    },
    {
      "bufferView": 3,
      "byteOffset": 39712,
      "componentType": 5126,
      "count": 522,
      "max": [
        1.0,
        0.9999914765357971,
        0.9999318718910217,
        1.0
      ],
      "min": [
        -1.0,
        -0.9946072101593018,
        -0.7122066617012024,
        -1.0
      ],
      "type": "VEC4"
    },
    {
      "bufferView": 1,
      "byteOffset": 88496,
      "componentType": 5126,
      "count": 522,
      "max": [
        0.9926707148551941,
        0.9827268719673157
      ],
      "min": [
        0.008062899112701416,
        0.016196906566619873
      ],
      "type": "VEC2"
    },
    {
      "bufferView": 0,
      "byteOffset": 152448,
      "componentType": 5125,
      "count": 2244,
      "type": "SCALAR"
    },
    {
      "bufferView": 2,
      "byteOffset": 278016,
      "componentType": 5126,
      "count": 522,
      "max": [
        -7.152939796447754,
        4.184049129486084,
        1.0480070114135742
      ],
      "min": [
        -18.583290100097656,
        -4.184049606323242,
        -1.0480072498321533
      ],
      "type": "VEC3"
    },
    {
      "bufferView": 2,
      "byteOffset": 284280,
      "componentType": 5126,
      "count": 522,
      "max": [
        0.9998723268508911,
        0.999931812286377,
        1.0
      ],
      "min": [
        -0.9999318718910217,
        -0.9999318718910217,
        -1.0
      ],
      "type": "VEC3"
    },
    {
      "bufferView": 3,
      "byteOffset": 48064,
      "componentType": 5126,
      "count": 522,
      "max": [
        1.0,
        0.9946072101593018,
        0.9999318718910217,
        1.0
      ],
      "min": [
        -1.0,
        -0.9999914765357971,
        -0.7208024263381958,
        -1.0
      ],
      "type": "VEC4"
    },
    {
      "bufferView": 1,
      "byteOffset": 92672,
      "componentType": 5126,
      "count": 522,
      "max": [
        0.9926707148551941,
        0.9827268719673157
      ],
      "min": [
        0.008062899112701416,
        0.016196906566619873
      ],
      "type": "VEC2"
    },
    {
      "bufferView": 0,
      "byteOffset": 161424,
      "componentType": 5125,
      "count": 2244,
      "type": "SCALAR"
    },
    {
      "bufferView": 4,
      "componentType": 5126,
      "count": 25,
      "max": [
        2.0
      ],
      "min": [
        0.03333333507180214
      ],
      "type": "SCALAR"
    },
    {
      "bufferView": 6,
      "componentType": 5126,
      "count": 25,
      "max": [
        0.41405412554740906,
        -0.07632714509963989,
        0.09828900545835495,
        0.9235208034515381
      ],
      "min": [
        0.2960340976715088,
        -0.2993834912776947,
        -0.43498390913009644,
        0.795941174030304
      ],
      "type": "VEC4"
    },
    {
      "bufferView": 4,
      "byteOffset": 100,
      "componentType": 5126,
      "count": 39,
      "max": [
        2.0
      ],
      "min": [
        0.03333333507180214
      ],
      "type": "SCALAR"
    },
    {
      "bufferView": 6,
      "byteOffset": 400,
      "componentType": 5126,
      "count": 39,
      "max": [
        0.42781856656074524,
        0.3799975514411926,
        0.21704262495040894,
        0.9376497268676758
      ],
      "min": [
        0.20355810225009918,
        0.14615096151828766,
        -0.42797812819480896,
        0.7929019331932068
      ],
      "type": "VEC4"
    },
    {
      "bufferView": 4,
      "byteOffset": 256,
      "componentType": 5126,
      "count": 43,
      "max": [
        1.4666666984558105
      ],
      "min": [
        0.03333333507180214
      ],
      "type": "SCALAR"
    },
    {
      "bufferView": 6,
      "byteOffset": 1024,
      "componentType": 5126,
      "count": 43,
      "max": [
        8.259490398826097e-17,
        0.9987367391586304,
        8.259490398826097e-17,
        1.0
      ],
      "min": [
        -8.659511634334291e-17,
        -0.8344853520393372,
        -8.659511634334291e-17,
        -0.4619942605495453
      ],
      "type": "VEC4"
    },
    {
      "bufferView": 4,
      "byteOffset": 428,
      "componentType": 5126,
      "count": 60,
      "max": [
        2.0
      ],
      "min": [
        0.03333333507180214
      ],
      "type": "SCALAR"
    },
    {
      "bufferView": 6,
      "byteOffset": 1712,
      "componentType": 5126,
      "count": 60,
      "max": [
        0.11848271638154984,
        0.0,
        0.0,
        0.9929561018943787
      ],
      "min": [
        0.1184164509177208,
        -0.00524159986525774,
        -0.07322666049003601,
        0.9902464151382446
      ],
      "type": "VEC4"
    },
    {
      "bufferView": 4,
      "byteOffset": 668,
      "componentType": 5126,
      "count": 60,
      "max": [
        2.0
      ],
      "min": [
        0.03333333507180214
      ],
      "type": "SCALAR"
    },
    {
      "bufferView": 6,
      "byteOffset": 2672,
      "componentType": 5126,
      "count": 60,
      "max": [
        -0.11701514571905136,
        0.03401574864983559,
        0.03430021554231644,
        0.9931301474571228
      ],
      "min": [
        -0.11800902336835861,
        -0.0,
        0.0,
        0.9918368458747864
      ],
      "type": "VEC4"
    },
    {
      "bufferView": 4,
      "byteOffset": 908,
      "componentType": 5126,
      "count": 60,
      "max": [
        2.0
      ],
      "min": [
        0.03333333507180214
      ],
      "type": "SCALAR"
    },
    {
      "bufferView": 5,
      "componentType": 5126,
      "count": 60,
      "max": [
        -1.430511474609375e-06,
        9.573619842529297,
        0.6168652176856995
      ],
      "min": [
        -1.430511474609375e-06,
        7.573619842529297,
        0.6168652176856995
      ],
      "type": "VEC3"
    }
  ],
  "animations": [
    {
      "channels": [
        {
          "sampler": 0,
          "target": {
            "node": 6,
            "path": "rotation"
          }
        },
        {
          "sampler": 1,
          "target": {
            "node": 8,
            "path": "rotation"
          }
        },
        {
          "sampler": 2,
          "target": {
            "node": 10,
            "path": "rotation"
          }
        },
        {
          "sampler": 3,
          "target": {
            "node": 12,
            "path": "rotation"
          }
        },
        {
          "sampler": 4,
          "target": {
            "node": 14,
            "path": "rotation"
          }
        },
        {
          "sampler": 5,
          "target": {
            "node": 4,
            "path": "translation"
          }
        }
      ],
      "name": "Take 001",
      "samplers": [
        {
          "input": 27,
          "interpolation": "LINEAR",
          "output": 28
        },
        {
          "input": 29,
          "interpolation": "LINEAR",
          "output": 30
        },
        {
          "input": 31,
          "interpolation": "LINEAR",
          "output": 32
        },
        {
          "input": 33,
          "interpolation": "LINEAR",
          "output": 34
        },
        {
          "input": 35,
          "interpolation": "LINEAR",
          "output": 36
        },
        {
          "input": 37,
          "interpolation": "LINEAR",
          "output": 38
        }
      ]
    }
  ],
  "asset": {
    "extras": {
      "author": "MortyJHin (https://sketchfab.com/MortyJHin)",
      "license": "CC-BY-NC-4.0 (http://creativecommons.org/licenses/by-nc/4.0/)",
      "source": "https://sketchfab.com/3d-models/pokemon-magnemite-100a13915fd243d0bf35b0c64468984b",
      "title": "[Pokémon] Magnemite"
    },
    "generator": "Sketchfab-12.68.0",
    "version": "2.0"
  },
  "bufferViews": [
    {
      "buffer": 0,
      "byteLength": 170400,
      "name": "floatBufferViews",
      "target": 34963
    },
    {
      "buffer": 0,
      "byteLength": 96848,
      "byteOffset": 170400,
      "byteStride": 8,
      "name": "floatBufferViews",
      "target": 34962
    },
    {
      "buffer": 0,
      "byteLength": 290544,
      "byteOffset": 267248,
      "byteStride": 12,
      "name": "floatBufferViews",
      "target": 34962
    },
    {
      "buffer": 0,
      "byteLength": 56416,
      "byteOffset": 557792,
      "byteStride": 16,
      "name": "floatBufferViews",
      "target": 34962
    },
    {
      "buffer": 0,
      "byteLength": 1148,
      "byteOffset": 614208,
      "name": "floatBufferViews"
    },
    {
      "buffer": 0,
      "byteLength": 720,
      "byteOffset": 615356,
      "byteStride": 12,
      "name": "floatBufferViews"
    },
    {
      "buffer": 0,
      "byteLength": 3632,
      "byteOffset": 616076,
      "byteStride": 16,
      "name": "floatBufferViews"
    }
  ],
  "buffers": [
    {
      "byteLength": 619708,
      "uri": "scene.bin"
    }
  ],
  "images": [
    {
      "uri": "textures/BaseHead_Material_baseColor.png"
    },
    {
      "uri": "textures/BaseHead_Material_metallicRoughness.png"
    },
    {
      "uri": "textures/BaseHead_Material_normal.png"
    },
    {
      "uri": "textures/phong2_baseColor.png"
    },
    {
      "uri": "textures/phong2_metallicRoughness.png"
    },
    {
      "uri": "textures/MagnetMaterial_baseColor.png"
    },
    {
      "uri": "textures/MagnetMaterial_metallicRoughness.png"
    },
    {
      "uri": "textures/MagnetMaterial_normal.png"
    }
  ],
  "materials": [
    {
      "doubleSided": true,
      "name": "BaseHead_Material",
      "normalTexture": {
        "index": 2
      },
      "pbrMetallicRoughness": {
        "baseColorTexture": {
          "index": 0
        },
        "metallicRoughnessTexture": {
          "index": 1
        }
      }
    },
    {
      "doubleSided": true,
      "name": "phong2",
      "pbrMetallicRoughness": {
        "baseColorTexture": {
          "index": 3
        },
        "metallicRoughnessTexture": {
          "index": 4
        }
      }
    },
    {
      "doubleSided": true,
      "name": "MagnetMaterial",
      "normalTexture": {
        "index": 7
      },
      "pbrMetallicRoughness": {
        "baseColorTexture": {
          "index": 5
        },
        "metallicRoughnessTexture": {
          "index": 6
        }
      }
    }
  ],
  "meshes": [
    {
      "name": "Magnemite:pSphere3_BaseHead_Material_0",
      "primitives": [
        {
          "attributes": {
            "NORMAL": 1,
            "POSITION": 0,
            "TANGENT": 2,
            "TEXCOORD_0": 3
          },
          "indices": 4,
          "material": 0,
          "mode": 4
        }
      ]
    },
    {
      "name": "Magnemite:pCylinder6_phong2_0",
      "primitives": [
        {
          "attributes": {
            "NORMAL": 6,
            "POSITION": 5,
            "TEXCOORD_0": 7
          },
          "indices": 8,
          "material": 1,
          "mode": 4
        }
      ]
    },
    {
      "name": "Magnemite:pCylinder5_phong2_0",
      "primitives": [
        {
          "attributes": {
            "NORMAL": 10,
            "POSITION": 9,
            "TEXCOORD_0": 11
          },
          "indices": 12,
          "material": 1,
          "mode": 4
        }
      ]
    },
    {
      "name": "Magnemite:pCylinder4_phong2_0",
      "primitives": [
        {
          "attributes": {
            "NORMAL": 14,
            "POSITION": 13,
            "TEXCOORD_0": 15
          },
          "indices": 16,
          "material": 1,
          "mode": 4
        }
      ]
    },
    {
      "name": "Magnemite:pCube3_MagnetMaterial_0",
      "primitives": [
        {
          "attributes": {
            "NORMAL": 18,
            "POSITION": 17,
            "TANGENT": 19,
            "TEXCOORD_0": 20
          },
          "indices": 21,
          "material": 2,
          "mode": 4
        }
      ]
    },
    {
      "name": "Magnemite:pCube2_MagnetMaterial_0",
      "primitives": [
        {
          "attributes": {
            "NORMAL": 23,
            "POSITION": 22,
            "TANGENT": 24,
            "TEXCOORD_0": 25
          },
          "indices": 26,
          "material": 2,
          "mode": 4
        }
      ]
    }
  ],
  "nodes": [
    {
      "children": [
        1
      ],
      "matrix": [
        1.0,
        0.0,
        0.0,
        0.0,
        0.0,
        2.220446049250313e-16,
        -1.0,
        0.0,
        0.0,
        1.0,
        2.220446049250313e-16,
        0.0,
        0.0,
        0.0,
        0.0,
        1.0
      ],
      "name": "Sketchfab_model"
    },
    {
      "children": [
        2
      ],
      "matrix": [
        1.0,
        0.0,
        0.0,
        0.0,
        0.0,
        0.0,
        1.0,
        0.0,
        0.0,
        -1.0,
        0.0,
        0.0,
        0.0,
        0.0,
        0.0,
        1.0
      ],
      "name": "Magnemite.fbx"
    },
    {
      "children": [
        3
      ],
      "name": "Object_2"
    },
    {
      "children": [
        4
      ],
      "name": "RootNode"
    },
    {
      "children": [
        5,
        6,
        8,
        10,
        12,
        14
      ],
      "name": "Magnemite:pSphere3",
      "translation": [
        -1.430511474609375e-06,
        7.573619842529297,
        0.6168652176856995
      ]
    },
    {
      "mesh": 0,
      "name": "Magnemite:pSphere3_BaseHead_Material_0"
    },
    {
      "children": [
        7
      ],
      "name": "Magnemite:pCylinder6",
      "rotation": [
        0.2960340976715088,
        -0.2993834912776947,
        0.09828900545835495,
        0.9017053842544556
      ],
      "translation": [
        -4.0343732833862305,
        -5.996530532836914,
        4.747550964355469
      ]
    },
    {
      "mesh": 1,
      "name": "Magnemite:pCylinder6_phong2_0"
    },
    {
      "children": [
        9
      ],
      "name": "Magnemite:pCylinder5",
      "rotation": [
        0.34331417083740234,
        0.2957817316055298,
        -0.1148713082075119,
        0.8839983940124512
      ],
      "translation": [
        3.9928081035614014,
        -5.87065315246582,
        4.66571044921875
      ]
    },
    {
      "mesh": 2,
      "name": "Magnemite:pCylinder5_phong2_0"
    },
    {
      "children": [
        11
      ],
      "name": "Magnemite:pCylinder4",
      "translation": [
        1.3113021850585938e-06,
        -0.573620080947876,
        -0.6168653964996338
      ]
    },
    {
      "mesh": 3,
      "name": "Magnemite:pCylinder4_phong2_0"
    },
    {
      "children": [
        13
      ],
      "name": "Magnemite:pCube3",
      "rotation": [
        0.11848273128271103,
        0.0,
        0.0,
        0.9929562211036682
      ],
      "translation": [
        1.430511474609375e-06,
        -0.7592170238494873,
        -0.09354196488857269
      ]
    },
    {
      "mesh": 4,
      "name": "Magnemite:pCube3_MagnetMaterial_0"
    },
    {
      "children": [
        15
      ],
      "name": "Magnemite:pCube2",
      "rotation": [
        -0.11701514571905136,
        -0.0,
        0.0,
        0.9931301474571228
      ],
      "translation": [
        1.430511474609375e-06,
        -0.7592170238494873,
        -0.09354196488857269
      ]
    },
    {
      "mesh": 5,
      "name": "Magnemite:pCube2_MagnetMaterial_0"
    }
  ],
  "samplers": [
    {
      "magFilter": 9729,
      "minFilter": 9987,
      "wrapS": 10497,
      "wrapT": 10497
    }
  ],
  "scene": 0,
  "scenes": [
    {
      "name": "Sketchfab_Scene",
      "nodes": [
        0
      ]
    }
  ],
  "textures": [
    {
      "sampler": 0,
      "source": 0
    },
    {
      "sampler": 0,
      "source": 1
    },
    {
      "sampler": 0,
      "source": 2
    },
    {
      "sampler": 0,
      "source": 3
    },
    {
      "sampler": 0,
      "source": 4
    },
    {
      "sampler": 0,
      "source": 5
    },
    {
      "sampler": 0,
      "source": 6
    },
    {
      "sampler": 0,
      "source": 7
    }
  ]
}
